<?xml version="1.0" encoding="UTF-8" ?>
<!DOCTYPE svg PUBLIC "-//W3C//DTD SVG 1.1//EN" "http://www.w3.org/Graphics/SVG/1.1/DTD/svg11.dtd">
<svg width="54pt" height="59pt" viewBox="0 0 54 59" version="1.1" xmlns="http://www.w3.org/2000/svg">
<g id="#fafafcff">
<path fill="#fafafc" opacity="1.00" d=" M 0.00 0.00 L 54.00 0.00 L 54.00 59.00 L 0.00 59.00 L 0.00 0.00 M 12.50 1.94 C 6.12 2.29 5.08 9.76 3.29 14.53 C 1.49 18.43 3.51 22.39 4.26 26.25 C 5.03 33.13 3.94 40.09 4.72 46.97 C 5.05 49.79 7.32 52.35 10.18 52.76 C 15.39 53.72 20.73 53.14 26.00 53.27 C 31.98 53.12 37.99 53.66 43.95 52.98 C 47.13 52.74 49.94 50.16 50.31 46.97 C 50.98 40.36 50.10 33.69 50.64 27.07 C 50.91 23.43 53.29 19.95 52.12 16.25 C 50.92 12.22 49.89 7.97 47.48 4.46 C 45.09 1.22 40.58 1.82 37.06 1.71 C 28.87 1.96 20.67 1.41 12.50 1.94 Z" />
<path fill="#fafafc" opacity="1.00" d=" M 11.28 6.18 C 17.82 5.32 24.43 5.96 31.00 5.77 C 35.19 5.88 39.49 5.32 43.61 6.31 C 46.34 9.62 47.25 14.04 48.34 18.09 C 48.91 19.63 47.98 20.98 47.33 22.29 C 44.05 22.98 40.77 22.29 37.56 21.59 C 33.21 20.61 28.96 23.45 24.62 22.14 C 21.53 21.30 18.29 21.06 15.19 22.03 C 12.25 22.65 7.62 23.72 6.39 19.95 C 6.99 15.11 8.65 10.31 11.28 6.18 Z" />
<path fill="#fafafc" opacity="1.00" d=" M 8.72 27.01 C 13.83 26.50 18.99 24.45 24.10 26.08 C 28.05 27.33 31.95 25.51 35.90 25.39 C 39.41 25.72 42.85 26.57 46.35 26.97 C 46.66 32.64 46.52 38.33 46.49 44.01 C 46.39 45.70 46.46 47.96 44.63 48.79 C 42.30 49.54 39.82 49.21 37.42 49.11 C 37.06 45.01 37.86 40.64 36.19 36.77 C 33.93 32.87 28.80 33.22 24.93 33.45 C 22.00 33.51 18.99 35.29 18.23 38.24 C 17.46 41.80 17.81 45.47 17.58 49.08 C 14.73 49.17 11.29 49.96 9.03 47.70 C 7.96 40.89 8.47 33.89 8.72 27.01 Z" />
<path fill="#fafafc" opacity="1.00" d=" M 22.11 38.31 C 25.48 36.72 29.50 36.85 32.89 38.33 C 33.76 41.86 33.55 45.51 33.28 49.09 C 29.43 49.36 25.57 49.36 21.72 49.09 C 21.44 45.50 21.26 41.84 22.11 38.31 Z" />
</g>
<g id="#010101ff">
<path fill="#010101" opacity="1.00" d=" M 12.50 1.94 C 20.67 1.41 28.87 1.96 37.06 1.71 C 40.58 1.82 45.09 1.22 47.48 4.46 C 49.89 7.97 50.92 12.22 52.12 16.25 C 53.29 19.95 50.91 23.43 50.64 27.07 C 50.10 33.69 50.98 40.36 50.31 46.97 C 49.94 50.16 47.13 52.74 43.95 52.98 C 37.99 53.66 31.98 53.12 26.00 53.27 C 20.73 53.14 15.39 53.72 10.18 52.76 C 7.32 52.35 5.05 49.79 4.72 46.97 C 3.94 40.09 5.03 33.13 4.26 26.25 C 3.51 22.39 1.49 18.43 3.29 14.53 C 5.08 9.76 6.12 2.29 12.50 1.94 M 11.28 6.18 C 8.65 10.31 6.99 15.11 6.39 19.95 C 7.62 23.72 12.25 22.65 15.19 22.03 C 18.29 21.06 21.53 21.30 24.62 22.14 C 28.96 23.45 33.21 20.61 37.56 21.59 C 40.77 22.29 44.05 22.98 47.33 22.29 C 47.98 20.98 48.91 19.63 48.34 18.09 C 47.25 14.04 46.34 9.62 43.61 6.31 C 39.49 5.32 35.19 5.88 31.00 5.77 C 24.43 5.96 17.82 5.32 11.28 6.18 M 8.72 27.01 C 8.47 33.89 7.96 40.89 9.03 47.70 C 11.29 49.96 14.73 49.17 17.58 49.08 C 17.81 45.47 17.46 41.80 18.23 38.24 C 18.99 35.29 22.00 33.51 24.93 33.45 C 28.80 33.22 33.93 32.87 36.19 36.77 C 37.86 40.64 37.06 45.01 37.42 49.11 C 39.82 49.21 42.30 49.54 44.63 48.79 C 46.46 47.96 46.39 45.70 46.49 44.01 C 46.52 38.33 46.66 32.64 46.35 26.97 C 42.85 26.57 39.41 25.72 35.90 25.39 C 31.95 25.51 28.05 27.33 24.10 26.08 C 18.99 24.45 13.83 26.50 8.72 27.01 M 22.11 38.31 C 21.26 41.84 21.44 45.50 21.72 49.09 C 25.57 49.36 29.43 49.36 33.28 49.09 C 33.55 45.51 33.76 41.86 32.89 38.33 C 29.50 36.85 25.48 36.72 22.11 38.31 Z" />
</g>
</svg>
